<?xml version="1.0" standalone="no"?><!DOCTYPE svg PUBLIC "-//W3C//DTD SVG 1.1//EN" "http://www.w3.org/Graphics/SVG/1.1/DTD/svg11.dtd"><svg t="1596075810780" class="icon" viewBox="0 0 1024 1024" version="1.1" xmlns="http://www.w3.org/2000/svg" p-id="19676" xmlns:xlink="http://www.w3.org/1999/xlink" width="1000" height="1000"><defs><style type="text/css"></style></defs><path d="M512 0C227.555556 0 0 227.555556 0 512s227.555556 512 512 512 512-227.555556 512-512-227.555556-512-512-512zM113.777778 512c0-91.022222 28.444444-170.666667 79.644444-238.933333L375.466667 455.111111c11.377778 17.066667 22.755556 34.133333 34.133333 45.511111-91.022222 45.511111-119.466667 159.288889-119.466667 250.311111h375.466667l79.644444 79.644445C682.666667 881.777778 603.022222 910.222222 512 910.222222c-221.866667 0-398.222222-176.355556-398.222222-398.222222z m716.8 238.933333l-119.466667-119.466666c-17.066667-56.888889-51.2-108.088889-102.4-136.533334 5.688889-5.688889 5.688889-5.688889 5.688889-11.377777 28.444444-28.444444 45.511111-68.266667 45.511111-108.088889C665.6 295.822222 597.333333 227.555556 512 227.555556c-56.888889 0-102.4 28.444444-130.844444 73.955555L273.066667 193.422222C341.333333 142.222222 420.977778 113.777778 512 113.777778c221.866667 0 398.222222 176.355556 398.222222 398.222222 0 91.022222-28.444444 170.666667-79.644444 238.933333z" fill="#707070" p-id="19677" data-spm-anchor-id="a313x.7781069.0.i7" class="selected"></path></svg>