<?xml version="1.0" standalone="no"?><!DOCTYPE svg PUBLIC "-//W3C//DTD SVG 1.1//EN" "http://www.w3.org/Graphics/SVG/1.1/DTD/svg11.dtd"><svg t="1596074716385" class="icon" viewBox="0 0 1024 1024" version="1.1" xmlns="http://www.w3.org/2000/svg" p-id="11425" xmlns:xlink="http://www.w3.org/1999/xlink" width="1000" height="1000"><defs><style type="text/css"></style></defs><path d="M1004.743958 290.18334a36.862285 36.862285 0 0 0-3.42905-10.71578v-5.143575a38.148179 38.148179 0 0 0-9.429887-11.144412 38.57681 38.57681 0 0 0-16.287986-6.000837l-237.890331-55.72206a38.319632 38.319632 0 0 0-17.57388 74.581834l97.727919 22.717455-307.328589 89.583926-307.32859-91.298451 97.299289-22.717455a38.57681 38.57681 0 0 0 29.575554-26.146505 38.148179 38.148179 0 0 0-9.001255-38.148179 39.005442 39.005442 0 0 0-38.148179-10.287149L45.038642 257.178736a38.148179 38.148179 0 0 0-14.144831 6.429468 37.719548 37.719548 0 0 0-9.858518 11.573043v4.714944a36.862285 36.862285 0 0 0-5.572206 10.287149v559.792382a38.57681 38.57681 0 0 0 27.432399 36.862286l456.492256 135.447467a39.434073 39.434073 0 0 0 22.288824 0l262.750942-79.296777a38.148179 38.148179 0 0 0 25.717873-47.578066 38.57681 38.57681 0 0 0-48.006697-25.717874l-214.315613 63.437422V456.920887l380.195897-114.015906v377.195479a38.57681 38.57681 0 0 0 77.153621 0v-428.631226a24.860611 24.860611 0 0 0 0-3.000419zM92.616708 342.904981l379.338635 112.730013v475.780661l-379.338635-111.444119z m874.407702 458.206781a38.57681 38.57681 0 0 0-38.57681 38.148179v3.857681a36.433654 36.433654 0 0 0 11.573043 26.146505 37.290917 37.290917 0 0 0 27.003767 9.858518 40.291335 40.291335 0 0 0 38.57681-40.291335 38.148179 38.148179 0 0 0-11.144412-27.003767 39.005442 39.005442 0 0 0-27.432398-11.144412z m0 0" p-id="11426" data-spm-anchor-id="a313x.7781069.0.i0" class="selected" fill="#707070"></path><path d="M486.957436 300.041859a38.57681 38.57681 0 0 0 9.429887 6.000837 38.57681 38.57681 0 0 0 14.573462 3.000418 30.432817 30.432817 0 0 0 18.859774-5.572206l6.000837-3.429049 100.299707-85.726246a38.148179 38.148179 0 0 0-12.858937-66.009209 39.005442 39.005442 0 0 0-38.57681 8.572625l-36.005023 31.718711V38.57681a38.57681 38.57681 0 0 0-77.153621 0v149.163667l-38.57681-33.433235a39.005442 39.005442 0 0 0-38.576811-8.143994 38.148179 38.148179 0 0 0-11.573043 68.152365z m0 0" p-id="11427" data-spm-anchor-id="a313x.7781069.0.i1" class="selected" fill="#707070"></path></svg>