<?xml version="1.0" standalone="no"?><!DOCTYPE svg PUBLIC "-//W3C//DTD SVG 1.1//EN" "http://www.w3.org/Graphics/SVG/1.1/DTD/svg11.dtd"><svg t="1596074943063" class="icon" viewBox="0 0 1024 1024" version="1.1" xmlns="http://www.w3.org/2000/svg" p-id="16630" xmlns:xlink="http://www.w3.org/1999/xlink" width="1000" height="1000"><defs><style type="text/css"></style></defs><path d="M322.56 141.312c-15.36 0-29.184 8.192-36.864 21.504l-189.44 328.192c-7.68 13.312-7.68 29.696 0 43.008l189.44 328.192c7.68 13.312 22.016 21.504 36.864 21.504h378.88c15.36 0 29.184-8.192 36.864-21.504l189.44-328.192c7.68-13.312 7.68-29.696 0-43.008l-189.44-328.192c-7.68-13.312-22.016-21.504-36.864-21.504H322.56z m0-90.624h378.88c47.616 0 91.648 25.6 115.2 66.56l189.44 328.192c23.552 40.96 23.552 92.16 0 133.12l-189.44 328.192c-23.552 40.96-67.584 66.56-115.2 66.56H322.56c-47.616 0-91.648-25.6-115.2-66.56L17.92 578.56c-23.552-40.96-23.552-92.16 0-133.12l189.44-328.192c23.552-40.96 67.584-66.56 115.2-66.56z m189.44 581.632c66.56 0 120.32-53.76 120.32-120.32S578.56 391.68 512 391.68 391.68 445.44 391.68 512 445.44 632.32 512 632.32z m0 90.624c-116.224 0-210.944-94.208-210.944-210.944 0-116.224 94.208-210.944 210.944-210.944 116.224 0 210.944 94.208 210.944 210.944 0 116.224-94.72 210.944-210.944 210.944z" p-id="16631" data-spm-anchor-id="a313x.7781069.0.i4" class="selected" fill="#707070"></path></svg>