<svg width="1024" height="1024" xmlns="http://www.w3.org/2000/svg" class="icon">
 <defs>
  <style type="text/css"/>
 </defs>
 <g>
  <title>background</title>
  <rect fill="none" id="canvas_background" height="602" width="802" y="-1" x="-1"/>
 </g>
 <g>
  <title>Layer 1</title>
  <path id="svg_2" fill="#2605fc" d="m493.587481,1004.50111l-363.108972,0a31.000511,36.148267 0 0 1 -31.000511,-36.148265l0,-903.706645a31.000511,36.148267 0 0 1 31.000511,-36.148265l363.108972,0c256.622221,0 442.873284,204.165404 442.873284,485.435061l0,2.566526c0.031001,282.751735 -186.220063,488.001587 -442.873284,488.001587zm-332.108463,-72.296531l332.108463,0c220.69263,0 380.872264,-174.813013 380.872264,-415.705056l0,-2.566526c0,-239.373815 -160.179634,-413.13853 -380.872264,-413.13853l-332.108463,0l0,831.410112zm332.108463,-107.143459l-192.637169,0a31.000511,36.148267 0 0 1 -31.000511,-36.148267l0,-544.826661a31.000511,36.148267 0 0 1 31.000511,-36.148267l192.637169,0c155.839563,0 264.651353,126.880412 264.651353,308.561597l0,2.566526c0,180.162956 -108.811789,305.995069 -264.651353,305.995071zm-161.636658,-72.296533l161.636658,0c121.211994,0 202.650333,-93.913195 202.650333,-233.698538l0,-2.566526c0,-141.303571 -81.438339,-236.265064 -202.650333,-236.265064l-161.636658,0l0,472.530128z"/>
 </g>
</svg>