<svg width="1024" height="1024" xmlns="http://www.w3.org/2000/svg" style="vector-effect: non-scaling-stroke;" stroke="null" class="icon">
 <defs style="vector-effect: non-scaling-stroke;" stroke="null">
  <style style="vector-effect: non-scaling-stroke;" stroke="null" type="text/css"/>
 </defs>
 <g stroke="null">
  <title stroke="null">background</title>
  <rect stroke="null" fill="none" id="canvas_background" height="602" width="802" y="-1" x="-1"/>
 </g>
 <g stroke="null">
  <title stroke="null">Layer 1</title>
  <path style="vector-effect: non-scaling-stroke;" stroke="null" id="svg_1" fill="#8a8a8a" d="m975.80305,869.57295l0,75.16648l-127.39048,-127.39048l-32.768,32.74362l127.41486,127.41486l-76.70248,0.02438l0,46.32381l155.79429,-0.02438l0,-154.25829l-46.34819,0z"/>
  <path stroke="null" id="svg_2" class="selected" fill="#ffffff" d="m953.751635,70.052951l-884.695256,0l0,883.719695l572.909598,0l311.785658,-311.427869l0,-572.291827zm-275.842423,211.290681l-156.626765,483.369038l-66.133949,0l143.852236,-433.835403l-142.225665,0c-22.375257,0 -36.458974,3.764556 -44.195089,9.51046c-8.569252,6.498819 -20.470973,21.041896 -35.784536,45.174683l-4.244947,6.696946l-27.612025,-12.601369l31.658601,-77.946124l16.860792,-42.598921l284.530688,0l0,22.230689l-0.079342,0z"/>
  <path stroke="null" id="svg_3" fill="#8a8a8a" d="m68.576028,70.841354l886.438462,0l0,572.983083l67.576028,-67.447116l0,-572.94341l-1021.590518,0l0,1019.602003l574.078226,0l67.536262,-67.407443l-574.03846,0l0,-884.787118z"/>
  <path stroke="null" id="svg_4" fill="#FDE7EA" d="m371.439307,303.858931l-32.862171,77.708974l28.661755,12.563029l4.406328,-6.676571c15.93692,-24.019859 28.29111,-38.558193 37.144961,-45.037239c8.03022,-5.767928 22.649359,-9.481525 45.875259,-9.481525l147.632676,0l-149.321085,432.515462l68.648172,0l162.581265,-481.898392l0,-22.202557l-295.347727,0l-17.419433,42.508819z"/>
  <path stroke="null" id="svg_5" fill="#d81e06" d="m373.678687,303.521617l-32.101538,77.092361l27.998346,12.463343l4.304338,-6.623593c15.568041,-23.829264 27.636279,-38.252237 36.285198,-44.679873c7.844351,-5.72216 22.125114,-9.40629 44.813423,-9.40629l144.215548,0l-145.864877,429.083494l67.059231,0l158.818135,-478.074575l0,-22.026382l-288.511565,0l-17.01624,42.171515z"/>
 </g>
</svg>