<?xml version="1.0" standalone="no"?><!DOCTYPE svg PUBLIC "-//W3C//DTD SVG 1.1//EN" "http://www.w3.org/Graphics/SVG/1.1/DTD/svg11.dtd"><svg t="1596077134618" class="icon" viewBox="0 0 1152 1024" version="1.1" xmlns="http://www.w3.org/2000/svg" p-id="25677" xmlns:xlink="http://www.w3.org/1999/xlink" width="1125" height="1000"><defs><style type="text/css"></style></defs><path d="M1088 192H832V64c0-35.4-28.6-64-64-64H384c-35.4 0-64 28.6-64 64v128H64c-35.4 0-64 28.6-64 64v736c0 17.6 14.4 32 32 32h1088c17.6 0 32-14.4 32-32V256c0-35.4-28.6-64-64-64zM320 872c0 13.2-10.8 24-24 24h-80c-13.2 0-24-10.8-24-24v-80c0-13.2 10.8-24 24-24h80c13.2 0 24 10.8 24 24v80z m0-256c0 13.2-10.8 24-24 24h-80c-13.2 0-24-10.8-24-24v-80c0-13.2 10.8-24 24-24h80c13.2 0 24 10.8 24 24v80z m320 256c0 13.2-10.8 24-24 24h-80c-13.2 0-24-10.8-24-24v-80c0-13.2 10.8-24 24-24h80c13.2 0 24 10.8 24 24v80z m0-256c0 13.2-10.8 24-24 24h-80c-13.2 0-24-10.8-24-24v-80c0-13.2 10.8-24 24-24h80c13.2 0 24 10.8 24 24v80z m32-340c0 6.6-5.4 12-12 12h-52v52c0 6.6-5.4 12-12 12h-40c-6.6 0-12-5.4-12-12v-52h-52c-6.6 0-12-5.4-12-12v-40c0-6.6 5.4-12 12-12h52V172c0-6.6 5.4-12 12-12h40c6.6 0 12 5.4 12 12v52h52c6.6 0 12 5.4 12 12v40z m288 596c0 13.2-10.8 24-24 24h-80c-13.2 0-24-10.8-24-24v-80c0-13.2 10.8-24 24-24h80c13.2 0 24 10.8 24 24v80z m0-256c0 13.2-10.8 24-24 24h-80c-13.2 0-24-10.8-24-24v-80c0-13.2 10.8-24 24-24h80c13.2 0 24 10.8 24 24v80z" p-id="25678" data-spm-anchor-id="a313x.7781069.0.i10" class="selected" fill="#0160fc"></path></svg>