<?xml version="1.0" standalone="no"?><!DOCTYPE svg PUBLIC "-//W3C//DTD SVG 1.1//EN" "http://www.w3.org/Graphics/SVG/1.1/DTD/svg11.dtd"><svg t="1596076038929" class="icon" viewBox="0 0 1024 1024" version="1.1" xmlns="http://www.w3.org/2000/svg" p-id="21780" xmlns:xlink="http://www.w3.org/1999/xlink" width="1000" height="1000"><defs><style type="text/css"></style></defs><path d="M874.666667 192a21.333333 21.333333 0 0 0-21.333334-21.333333H170.666667a21.333333 21.333333 0 0 0-21.333334 21.333333v469.333333a21.333333 21.333333 0 0 0 21.333334 21.333334h704V192zM624.64 725.333333l42.666667 170.666667H356.693333l42.666667-170.666667H170.666667a64 64 0 0 1-64-64V192a64 64 0 0 1 64-64h682.666666a64 64 0 0 1 64 64v533.333333H624.64zM149.333333 576v42.666667h725.333334v-42.666667H149.333333z m261.973334 277.333333h201.386666l-32-128h-137.386666l-32 128z m82.048-362.474666a21.333333 21.333333 0 0 0 35.84 2.24l83.456-113.706667 48.448 60.586667a21.333333 21.333333 0 0 0 16.661333 8.021333h120.149333a21.333333 21.333333 0 1 0 0-42.666667h-109.866666l-59.456-74.346666a21.333333 21.333333 0 0 0-33.856 0.704l-80.256 109.354666-103.061334-185.472a21.333333 21.333333 0 0 0-36.736-0.938666L280.426667 405.333333h-69.973334a21.333333 21.333333 0 0 0 0 42.666667H292.266667a21.333333 21.333333 0 0 0 18.069333-10.026667l81.365333-130.069333 101.674667 182.954667z" fill="#333333" p-id="21781"></path></svg>