<?xml version="1.0" standalone="no"?><!DOCTYPE svg PUBLIC "-//W3C//DTD SVG 1.1//EN" "http://www.w3.org/Graphics/SVG/1.1/DTD/svg11.dtd"><svg t="1596076581060" class="icon" viewBox="0 0 1024 1024" version="1.1" xmlns="http://www.w3.org/2000/svg" p-id="27184" xmlns:xlink="http://www.w3.org/1999/xlink" width="1000" height="1000"><defs><style type="text/css"></style></defs><path d="M1024 337.92l-501.76 501.76-25.6-5.12-5.12-25.6L993.28 307.2l30.72 30.72zM81.92 424.96h-10.24 10.24z m747.52 245.76v286.72h-768V491.52h558.08V424.96h-563.2c-30.72 0-56.32 25.6-56.32 51.2V972.8c0 25.6 25.6 51.2 56.32 51.2h778.24c30.72 0 56.32-20.48 56.32-51.2v-302.08h-61.44zM271.36 46.08c-163.84 87.04-204.8 276.48-184.32 445.44h61.44c-20.48-148.48 10.24-317.44 153.6-394.24 153.6-81.92 348.16-20.48 430.08 133.12l51.2-25.6C686.08 15.36 455.68-51.2 271.36 46.08z" p-id="27185" data-spm-anchor-id="a313x.7781069.0.i52" class="selected" fill="#2c2c2c"></path><path d="M76.8 424.96l10.24 66.56h76.8L153.6 424.96z" p-id="27186"></path></svg>